HIERARCHY
ROOT hip
{
  OFFSET 0 0 0
  CHANNELS 6 Xposition Yposition Zposition Zrotation Yrotation Xrotation
  JOINT abdomen
  {
    OFFSET 0 20.6881 -0.73152
    CHANNELS 3 Zrotation Xrotation Yrotation
    JOINT chest
    {
      OFFSET 0 11.7043 -0.48768
      CHANNELS 3 Zrotation Xrotation Yrotation
      JOINT neck
      {
        OFFSET 0 22.1894 -2.19456
        CHANNELS 3 Zrotation Xrotation Yrotation
        JOINT head
        {
          OFFSET -0.24384 7.07133 1.2192
          CHANNELS 3 Zrotation Xrotation Yrotation
          JOINT leftEye
          {
            OFFSET 4.14528 8.04674 8.04672
            CHANNELS 3 Zrotation Xrotation Yrotation
            End Site
            {
              OFFSET 1 0 0
            }
          }
          JOINT rightEye
          {
            OFFSET -3.6576 8.04674 8.04672
            CHANNELS 3 Zrotation Xrotation Yrotation
            End Site
            {
              OFFSET 1 0 0
            }
          }
        }
      }
      JOINT rCollar
      {
        OFFSET -2.68224 19.2634 -4.8768
        CHANNELS 3 Zrotation Xrotation Yrotation
        JOINT rShldr
        {
          OFFSET -8.77824 -1.95073 1.46304
          CHANNELS 3 Zrotation Xrotation Yrotation
          JOINT rForeArm
          {
            OFFSET -28.1742 -1.7115 0.48768
            CHANNELS 3 Zrotation Xrotation Yrotation
            JOINT rHand
            {
              OFFSET -22.5879 0.773209 7.07136
              CHANNELS 3 Zrotation Xrotation Yrotation
              JOINT rThumb1
              {
                OFFSET -1.2192 -0.487915 3.41376
                CHANNELS 3 Zrotation Xrotation Yrotation
                JOINT rThumb2
                {
                  OFFSET -3.37035 -0.52449 3.41376
                  CHANNELS 3 Zrotation Xrotation Yrotation
                  End Site
                  {
                    OFFSET -1.78271 -1.18214 1.43049
                  }
                }
              }
              JOINT rIndex1
              {
                OFFSET -7.75947 0.938293 5.60832
                CHANNELS 3 Zrotation Xrotation Yrotation
                JOINT rIndex2
                {
                  OFFSET -2.54057 -0.884171 1.56538
                  CHANNELS 3 Zrotation Xrotation Yrotation
                  End Site
                  {
                    OFFSET -1.62519 -0.234802 1.16502
                  }
                }
              }
              JOINT rMid1
              {
                OFFSET -8.24714 1.18213 3.41376
                CHANNELS 3 Zrotation Xrotation Yrotation
                JOINT rMid2
                {
                  OFFSET -3.10165 -0.590103 1.0647
                  CHANNELS 3 Zrotation Xrotation Yrotation
                  End Site
                  {
                    OFFSET -2.48547 -0.328903 0.83742
                  }
                }
              }
              JOINT rRing1
              {
                OFFSET -8.82822 0.546677 1.51678
                CHANNELS 3 Zrotation Xrotation Yrotation
                JOINT rRing2
                {
                  OFFSET -2.60934 -0.819778 -0.0198488
                  CHANNELS 3 Zrotation Xrotation Yrotation
                  End Site
                  {
                    OFFSET -2.33842 -0.294052 0.168128
                  }
                }
              }
              JOINT rPinky1
              {
                OFFSET -8.27202 -0.0477905 -0.4584
                CHANNELS 3 Zrotation Xrotation Yrotation
                JOINT rPinky2
                {
                  OFFSET -1.82734 -0.647385 -0.700984
                  CHANNELS 3 Zrotation Xrotation Yrotation
                  End Site
                  {
                    OFFSET -1.69225 -0.51767 -0.607171
                  }
                }
              }
            }
          }
        }
      }
      JOINT lCollar
      {
        OFFSET 2.68224 19.2634 -4.8768
        CHANNELS 3 Zrotation Xrotation Yrotation
        JOINT lShldr
        {
          OFFSET 8.77824 -1.95073 1.46304
          CHANNELS 3 Zrotation Xrotation Yrotation
          JOINT lForeArm
          {
            OFFSET 28.1742 -1.7115 0.48768
            CHANNELS 3 Zrotation Xrotation Yrotation
            JOINT lHand
            {
              OFFSET 22.5879 0.773209 7.07136
              CHANNELS 3 Zrotation Xrotation Yrotation
              JOINT lThumb1
              {
                OFFSET 1.2192 -0.487915 3.41376
                CHANNELS 3 Zrotation Xrotation Yrotation
                JOINT lThumb2
                {
                  OFFSET 3.37035 -0.52449 3.41376
                  CHANNELS 3 Zrotation Xrotation Yrotation
                  End Site
                  {
                    OFFSET 1.78271 -1.18214 1.43049
                  }
                }
              }
              JOINT lIndex1
              {
                OFFSET 7.75947 0.938293 5.60832
                CHANNELS 3 Zrotation Xrotation Yrotation
                JOINT lIndex2
                {
                  OFFSET 2.54057 -0.884171 1.56538
                  CHANNELS 3 Zrotation Xrotation Yrotation
                  End Site
                  {
                    OFFSET 1.62519 -0.234802 1.16502
                  }
                }
              }
              JOINT lMid1
              {
                OFFSET 8.24714 1.18213 3.41376
                CHANNELS 3 Zrotation Xrotation Yrotation
                JOINT lMid2
                {
                  OFFSET 3.10165 -0.590103 1.0647
                  CHANNELS 3 Zrotation Xrotation Yrotation
                  End Site
                  {
                    OFFSET 2.48547 -0.328903 0.83742
                  }
                }
              }
              JOINT lRing1
              {
                OFFSET 8.82822 0.546677 1.51678
                CHANNELS 3 Zrotation Xrotation Yrotation
                JOINT lRing2
                {
                  OFFSET 2.60934 -0.819778 -0.0198488
                  CHANNELS 3 Zrotation Xrotation Yrotation
                  End Site
                  {
                    OFFSET 2.33842 -0.294052 0.168128
                  }
                }
              }
              JOINT lPinky1
              {
                OFFSET 8.27202 -0.0477905 -0.4584
                CHANNELS 3 Zrotation Xrotation Yrotation
                JOINT lPinky2
                {
                  OFFSET 1.82734 -0.647385 -0.700984
                  CHANNELS 3 Zrotation Xrotation Yrotation
                  End Site
                  {
                    OFFSET 1.69225 -0.51767 -0.607171
                  }
                }
              }
            }
          }
        }
      }
    }
  }
  JOINT rButtock
  {
    OFFSET -8.77824 4.35084 1.2192
    CHANNELS 3 Zrotation Xrotation Yrotation
    JOINT rThigh
    {
      OFFSET 0 -1.70687 -2.19456
      CHANNELS 3 Zrotation Xrotation Yrotation
      JOINT rShin
      {
        OFFSET 0 -36.8199 0.73152
        CHANNELS 3 Zrotation Xrotation Yrotation
        JOINT rFoot
        {
          OFFSET 0.73152 -45.1104 -5.12064
          CHANNELS 3 Zrotation Xrotation Yrotation
          End Site
          {
            OFFSET -1.1221 -3.69964 12.103
          }
        }
      }
    }
  }
  JOINT lButtock
  {
    OFFSET 8.77824 4.35084 1.2192
    CHANNELS 3 Zrotation Xrotation Yrotation
    JOINT lThigh
    {
      OFFSET 0 -1.70687 -2.19456
      CHANNELS 3 Zrotation Xrotation Yrotation
      JOINT lShin
      {
        OFFSET 0 -36.8199 0.73152
        CHANNELS 3 Zrotation Xrotation Yrotation
        JOINT lFoot
        {
          OFFSET -0.73152 -45.1104 -5.12064
          CHANNELS 3 Zrotation Xrotation Yrotation
          End Site
          {
            OFFSET 1.1221 -3.69964 12.103
          }
        }
      }
    }
  }
}
MOTION
Frames:	4
Frame Time:	0.03333
-0.0002500000118743628 51.6953010559082 0.01600000075995922 -13.356800079345703 -25.727099776268005 11.545500308275223 10.517199710011482 4.283540099859238 1.7256900295615196 3.5378699004650116 -6.07711985707283 0.5292090168222785 -5.64956970512867 11.73740029335022 -5.643580332398415 6.233860105276108 -19.781700521707535 -9.627449959516525 0.0 0.0 0.0 0.0 0.0 0.0 -3.197442310920451e-13 0.0 0.0 103.2550048828125 51.524001359939575 -52.31970012187958 -27.29389876127243 -43.1740003824234 89.82610166072845 -3.8629100471735 -47.38969802856445 -8.7881800532341 2.6772184469336935e-09 -5.701679128833348e-09 9.515588317299262e-10 4.583853296935558e-09 -9.576979209668934e-09 1.7291768017457798e-09 2.6772184469336935e-09 -5.701679128833348e-09 9.515588317299262e-10 7.7309102565050125 5.474880114197731 0.41731400415301323 2.6772184469336935e-09 -5.701679128833348e-09 9.515588317299262e-10 2.905540131032467 0.9651830233633518 0.102901995414868 2.6772184469336935e-09 -5.701679128833348e-09 9.515588317299262e-10 10.27859978377819 0.7318009994924068 0.025912300043273717 2.6772184469336935e-09 -5.701679128833348e-09 9.515588317299262e-10 2.221670038998127 -0.733487019315362 -0.2089200052432716 -3.197442310920451e-13 0.0 0.0 -40.78240066766739 28.769599199295044 -37.95879900455475 16.576900631189346 -9.234509691596031 -30.900300443172455 1.057689981535077 27.86670058965683 -4.261460155248642 1.6690648863004753e-09 7.292726422747364e-09 4.604316927725449e-09 2.9812952107022284e-09 1.2247483027749695e-08 7.919425115687773e-09 1.6690648863004753e-09 7.292726422747364e-09 4.604316927725449e-09 -7.7309102565050125 5.474880114197731 -0.41731400415301323 1.6690648863004753e-09 7.292726422747364e-09 4.604316927725449e-09 -2.905540131032467 0.9651830233633518 -0.102901995414868 1.6690648863004753e-09 7.292726422747364e-09 4.604316927725449e-09 -10.27859978377819 0.7318009994924068 -0.025912300043273717 1.6690648863004753e-09 7.292726422747364e-09 4.604316927725449e-09 -2.221670038998127 -0.733487019315362 0.2089200052432716 0.0 0.0 0.0 -10.403199791908264 14.501300007104874 0.1960350084118545 0.103834995534271 29.619001150131226 2.416910044848919 -11.555499583482742 -18.775799721479416 -36.09539866447449 0.0 0.0 0.0 82.30450093746185 -52.52959907054901 77.42070257663727 7.434760183095932 82.0017009973526 -6.990340277552605 -0.07348759740125388 -4.868550002574921 -3.602059856057167
-0.00043000001460313797 51.697601318359375 0.02800000086426735 -13.32889974117279 -25.734599232673645 11.475100368261337 10.48789992928505 4.35178991407156 1.7290600575506687 3.5410798341035843 -6.084750071167946 0.5328460084274411 -5.285469889640808 11.307400614023209 -4.931740164756775 6.145429685711861 -19.181300103664398 -8.265410140156746 0.0 0.0 0.0 0.0 0.0 0.0 -3.197442310920451e-13 0.0 0.0 103.19599628448486 51.44990265369415 -52.23170220851898 -27.29629933834076 -43.16699981689453 89.81169819831848 -3.8621999323368073 -47.38659739494324 -8.787209764122963 9.736211836752773e-10 -1.7112711248046253e-09 5.525180313270539e-10 1.6565948612878856e-09 -2.821423095156206e-09 9.822542779147625e-10 9.736211836752773e-10 -1.7112711248046253e-09 5.525180313270539e-10 7.7309102565050125 5.474880114197731 0.41731400415301323 9.736211836752773e-10 -1.7112711248046253e-09 5.525180313270539e-10 2.905540131032467 0.9651830233633518 0.102901995414868 9.736211836752773e-10 -1.7112711248046253e-09 5.525180313270539e-10 10.27859978377819 0.7318009994924068 0.025912300043273717 9.736211836752773e-10 -1.7112711248046253e-09 5.525180313270539e-10 2.221670038998127 -0.733487019315362 -0.2089200052432716 -3.197442310920451e-13 0.0 0.0 -40.72470098733902 28.764299154281616 -38.011201322078705 16.558200269937515 -9.216430261731148 -30.860198736190796 1.0560600366443396 27.847300171852112 -4.257959872484207 9.397282951795205e-10 3.4941649573738687e-09 2.3430857254425064e-09 1.673221561304672e-09 5.8551563597575296e-09 4.0313352656085044e-09 9.397282951795205e-10 3.4941649573738687e-09 2.3430857254425064e-09 -7.7309102565050125 5.474880114197731 -0.41731400415301323 9.397282951795205e-10 3.4941649573738687e-09 2.3430857254425064e-09 -2.905540131032467 0.9651830233633518 -0.102901995414868 9.397282951795205e-10 3.4941649573738687e-09 2.3430857254425064e-09 -10.27859978377819 0.7318009994924068 -0.025912300043273717 9.397282951795205e-10 3.4941649573738687e-09 2.3430857254425064e-09 -2.221670038998127 -0.733487019315362 0.2089200052432716 0.0 0.0 0.0 -10.421399921178818 14.53829973936081 0.15797200030647218 0.10433699819259346 29.64219957590103 2.4179800786077976 -11.555200517177582 -18.751300424337387 -36.12749934196472 0.0 0.0 0.0 82.19809770584106 -52.53170192241669 77.29650020599365 7.414510175585747 81.99269950389862 -6.968000158667564 -0.07955920184031129 -4.886359870433807 -3.6212601140141487
-0.004569999873638153 51.6973991394043 0.030000000959262252 -13.318900465965271 -25.714901089668274 11.427799612283707 10.4898002743721 4.413670152425766 1.7379599623382092 3.529359921813011 -6.092570051550865 0.5375899979844689 -4.859820082783699 10.967499688267708 -4.098789878189564 6.010179966688156 -18.680600076913834 -6.682890057563782 0.0 0.0 0.0 0.0 0.0 0.0 -3.197442310920451e-13 0.0 0.0 103.160001039505 51.357302069664 -52.16610074043274 -27.299399971961975 -43.1577005982399 89.79320168495178 -3.8609399646520615 -47.38109886646271 -8.785489797592163 -9.29176735553483e-10 2.488889094820479e-09 -3.069544618483633e-11 -1.6047962958509743e-09 4.256435204297304e-09 -8.185452315956354e-11 -9.29176735553483e-10 2.488889094820479e-09 -3.069544618483633e-11 7.7309102565050125 5.474880114197731 0.41731400415301323 -9.29176735553483e-10 2.488889094820479e-09 -4.092726157978177e-11 2.905540131032467 0.9651830233633518 0.102901995414868 -9.29176735553483e-10 2.488889094820479e-09 -3.069544618483633e-11 10.27859978377819 0.7318009994924068 0.025912300043273717 -9.29176735553483e-10 2.488889094820479e-09 -3.069544618483633e-11 2.221670038998127 -0.733487019315362 -0.2089200052432716 -3.197442310920451e-13 0.0 0.0 -40.66570043563843 28.757199347019196 -38.083698749542236 16.525300294160843 -9.18460987508297 -30.78960031270981 1.0567399766296148 27.855301201343536 -4.2594099417328835 -1.2182255204606918e-10 -1.5143086784519255e-09 -7.264588930411264e-10 -2.2605917138207587e-10 -2.568185664131306e-09 -1.2585132935782894e-09 -1.2182255204606918e-10 -1.5143086784519255e-09 -7.264588930411264e-10 -7.7309102565050125 5.474880114197731 -0.41731400415301323 -1.2182255204606918e-10 -1.5143086784519255e-09 -7.264588930411264e-10 -2.905540131032467 0.9651830233633518 -0.102901995414868 -1.2182255204606918e-10 -1.5143086784519255e-09 -7.264588930411264e-10 -10.27859978377819 0.7318009994924068 -0.025912300043273717 -1.2182255204606918e-10 -1.5143086784519255e-09 -7.264588930411264e-10 -2.221670038998127 -0.733487019315362 0.2089200052432716 0.0 0.0 0.0 -10.422099977731705 14.577199816703796 0.11130999773740768 0.10469000204466283 29.6615007519722 2.418879959732294 -11.554500460624695 -18.721100091934204 -36.16770029067993 0.0 0.0 0.0 82.09469854831696 -52.544201016426086 77.14350163936615 7.388520240783691 81.9808977842331 -6.941520050168037 -0.08537759946193546 -4.906279966235161 -3.6357299610972404
-0.01594000030308962 51.69240188598633 0.02800000086426735 -13.346300572156906 -25.69249927997589 11.439099758863449 10.586100295186043 4.389840066432953 1.7697199992835522 3.474239856004715 -6.073639690876007 0.5438519921153784 -4.500329978764057 10.766600221395493 -3.1570498645305634 5.970760211348534 -18.305600434541702 -4.872410036623478 0.0 0.0 0.0 0.0 0.0 0.0 0.0 0.0 0.0 103.15900325775146 51.24189734458923 -52.13369965553284 -27.3037987947464 -43.144201040267944 89.76689994335175 -3.8558199629187584 -47.35860049724579 -8.778540194034576 -1.88553173074979e-09 4.1950443119276315e-09 -5.422862159321085e-10 -3.232933920571668e-09 7.065068530209828e-09 -1.0027179087046534e-09 -1.88553173074979e-09 4.1950443119276315e-09 -5.422862159321085e-10 7.7309102565050125 5.474880114197731 0.41731400415301323 -1.885851474980882e-09 4.1950443119276315e-09 -5.422862159321085e-10 2.905540131032467 0.9651830233633518 0.102901995414868 -1.88553173074979e-09 4.1950443119276315e-09 -5.422862159321085e-10 10.27859978377819 0.7318009994924068 0.025912300043273717 -1.88553173074979e-09 4.1950443119276315e-09 -5.422862159321085e-10 2.221670038998127 -0.733487019315362 -0.2089200052432716 0.0 0.0 0.0 -40.63999950885773 28.72539907693863 -38.16469877958298 16.474299430847168 -9.135530143976212 -30.680300295352936 1.0645899642258883 27.948400676250458 -4.276209957897663 -9.64028856742516e-10 -5.98816995989182e-09 -3.356035449542105e-09 -1.7349321979054366e-09 -1.0106475656357361e-08 -5.77074388274923e-09 -9.64028856742516e-10 -5.98816995989182e-09 -3.356035449542105e-09 -7.7309102565050125 5.474880114197731 -0.41731400415301323 -9.64028856742516e-10 -5.98816995989182e-09 -3.356035449542105e-09 -2.905540131032467 0.9651830233633518 -0.102901995414868 -9.64028856742516e-10 -5.98816995989182e-09 -3.356035449542105e-09 -10.27859978377819 0.7318009994924068 -0.025912300043273717 -9.64028856742516e-10 -5.98816995989182e-09 -3.356035449542105e-09 -2.221670038998127 -0.733487019315362 0.2089200052432716 0.0 0.0 0.0 -10.383399724960327 14.55989956855774 0.04752389795612544 0.10491599910892546 29.672401249408722 2.419850081205368 -11.545599550008774 -18.68640035390854 -36.20039910078049 0.0 0.0 0.0 82.11660146713257 -52.57049739360809 77.06260085105896 7.3684003204107285 81.97660088539124 -6.9257500022649765 -0.09518620208837092 -4.927590116858482 -3.660689927637577
